<svg fill="none" height="56" viewBox="0 0 56 56" width="56" xmlns="http://www.w3.org/2000/svg"><path clip-rule="evenodd" d="m16 13h23v30h-23zm-3 0c0-1.6569 1.3431-3 3-3h23c1.6569 0 3 1.3431 3 3v30c0 1.6569-1.3431 3-3 3h-23c-1.6569 0-3-1.3431-3-3zm9 7c0 .8284-.6716 1.5-1.5 1.5s-1.5-.6716-1.5-1.5.6716-1.5 1.5-1.5 1.5.6716 1.5 1.5zm0 7c0 .8284-.6716 1.5-1.5 1.5s-1.5-.6716-1.5-1.5.6716-1.5 1.5-1.5 1.5.6716 1.5 1.5zm-1.5 8.5c.8284 0 1.5-.6716 1.5-1.5s-.6716-1.5-1.5-1.5-1.5.6716-1.5 1.5.6716 1.5 1.5 1.5zm3.5-15.5c0-.8284.6716-1.5 1.5-1.5h8c.8284 0 1.5.6716 1.5 1.5s-.6716 1.5-1.5 1.5h-8c-.8284 0-1.5-.6716-1.5-1.5zm1.5 5.5c-.8284 0-1.5.6716-1.5 1.5s.6716 1.5 1.5 1.5h8c.8284 0 1.5-.6716 1.5-1.5s-.6716-1.5-1.5-1.5zm-1.5 8.5c0-.8284.6716-1.5 1.5-1.5h8c.8284 0 1.5.6716 1.5 1.5s-.6716 1.5-1.5 1.5h-8c-.8284 0-1.5-.6716-1.5-1.5z" fill="#fff" fill-rule="evenodd"/></svg>