<svg fill="none" height="40" viewBox="0 0 90 40" width="90" xmlns="http://www.w3.org/2000/svg"><g fill="#000"><path d="m76.3672 7.73269c2.59-.93391 4.0436-1.019 6.6332 0v23.83401c-2.5914.8178-4.0422.8766-6.6332 0z"/><path d="m73.0567 24.8793h-13.2664c.1192 1.0621.4065 1.8533.8617 2.3736.6395.7479 1.474 1.1218 2.5037 1.1218.6503 0 1.2681-.1626 1.8534-.4877.3577-.206.7424-.5691 1.1543-1.0893.7749-.9789 6.3243-.7262 6.5194.6015-.9972 1.7342-2.2002 2.9806-3.6093 3.7393-1.409.7479-3.4304 1.1218-6.0641 1.1218-2.287 0-4.0862-.3197-5.3976-.9592-1.3115-.6503-2.4008-1.6746-3.2679-3.0727-.8562-1.409-1.2843-3.0619-1.2843-4.9587 0-2.6988.8616-4.8827 2.585-6.5519 1.7341-1.6691 4.124-2.5037 7.1697-2.5037 2.4712 0 4.4221.3739 5.8528 1.1218s2.52 1.8317 3.2678 3.2516c.7479 1.4198 1.1218 3.2678 1.1218 5.5439zm-6.7307-3.1703c-.1301-1.279-.4769-2.1948-1.0405-2.7476-.5528-.5528-1.2844-.8291-2.1948-.8291-1.0514 0-1.8914.4172-2.52 1.2518-.401.5203-.6557 1.2952-.7641 2.3249z"/><path d="m30.8623 23.286c0-2.6338.8888-4.8015 2.6663-6.5031 1.7775-1.7125 4.1783-2.5688 7.2022-2.5688 3.4575 0 6.0696 1.0026 7.8363 3.0077 1.4198 1.615 2.1298 3.6038 2.1298 5.9666 0 2.6555-.8834 4.834-2.6501 6.5357-1.7558 1.6908-4.1891 2.5362-7.2997 2.5362-2.7747 0-5.0183-.7045-6.7308-2.1135-2.1027-1.745-3.154-4.0319-3.154-6.8608zm6.6332-.0163c0 1.5391.3089 2.6772.9267 3.4142.6286.737 1.4144 1.1055 2.3574 1.1055.9538 0 1.7342-.3631 2.3411-1.0893.6178-.7262.9267-1.8913.9267-3.4954 0-1.4957-.3089-2.6067-.9267-3.3329-.6178-.737-1.3819-1.1055-2.2923-1.1055-.9647 0-1.7613.3739-2.3899 1.1218-.6287.737-.943 1.8642-.943 3.3816z"/><path d="m27.7125 31.3622c-3.2424.9175-5.0398.9827-7.6412 0l-13.0713-21.57418c3.087-1.77484 4.7633-1.95841 7.5924 0zm-20.7125 0v-19.5257l6.2593 10.2587v9.267c-2.2021.9068-3.54019 1.0235-6.2593 0zm20.7125-21.57418v19.52568l-6.2593-10.3075v-9.21818c2.5769-1.58598 3.9441-1.61076 6.2593 0z"/></g></svg>