<svg fill="none" height="56" viewBox="0 0 56 56" width="56" xmlns="http://www.w3.org/2000/svg"><path d="m17.9326 22.6138-6.6035 5.3864 6.6035 5.3865c.219.1757.4004.3921.5335.6367.1332.2446.2155.5126.2423.7886.0269.2759-.0024.5543-.086.8191-.0837.2648-.22.5108-.4012.7238-.1813.213-.4038.3887-.6547.5171s-.5254.2069-.8075.2309c-.282.0241-.5662-.0068-.836-.0908-.2699-.0839-.5201-.2194-.7362-.3985l-8.58066-6.9999c-.24167-.1971-.43611-.4438-.56955-.7226s-.20261-.583-.20261-.8909.06917-.612.20261-.8909c.13344-.2788.32788-.5255.56955-.7226l8.58066-6.9999c.4378-.3511.9995-.5188 1.563-.4663.5634.0525 1.0828.3208 1.445.7465s.5379.9743.4888 1.5263c-.0491.5519-.319 1.0625-.751 1.4205zm31.4626 3.7729-8.5807-6.9999c-.2161-.1791-.4663-.3145-.7362-.3985-.2698-.084-.554-.1148-.836-.0908-.2821.0241-.5566.1026-.8075.2309-.2509.1284-.4734.3042-.6547.5171-.1812.213-.3175.459-.4012.7238-.0836.2649-.1129.5433-.086.8192.0268.2759.1091.5439.2423.7886.1331.2446.3145.461.5335.6367l6.6035 5.3864-6.6035 5.3865c-.219.1757-.4004.3921-.5335.6367-.1332.2446-.2155.5126-.2423.7886-.0269.2759.0024.5543.086.8191.0837.2648.22.5108.4012.7238.1813.213.4038.3887.6547.5171s.5254.2069.8075.2309c.282.0241.5662-.0068.836-.0908.2699-.0839.5201-.2194.7362-.3985l8.5807-6.9999c.2416-.1971.4361-.4438.5695-.7226s.2026-.583.2026-.8909-.0692-.612-.2026-.8909c-.1334-.2788-.3279-.5255-.5695-.7226zm-14.9412-15.7602c-.2648-.0943-.5459-.1366-.8274-.1245-.2815.0122-.5578.0785-.8131.1951-.2554.1167-.4847.2815-.6749.485-.1903.2034-.3377.4416-.434.7008l-11.4409 30.7996c-.1939.5233-.1676 1.1006.073 1.605.2407.5043.6761.8945 1.2106 1.0847.2346.0849.4828.1281.7329.1278.4404.0001.8702-.1326 1.231-.3799.3607-.2473.635-.5974.7855-1.0026l11.4409-30.7996c.0963-.2592.1395-.5345.1271-.81-.0124-.2756-.0801-.5461-.1993-.796s-.2876-.4744-.4954-.6607c-.2078-.1862-.4511-.3306-.716-.4247z" fill="#c1c1c1"/></svg>