<svg fill="none" height="56" viewBox="0 0 56 56" width="56" xmlns="http://www.w3.org/2000/svg"><path d="m37.8933 26.8565 3.6634-3.6633-8.75-8.75-3.6634 3.6633-9.66-9.63665c-1.82-1.82-4.7833-1.82-6.6033 0l-4.43333 4.43335c-1.82 1.82-1.82 4.7833 0 6.6033l9.63663 9.6367-10.7333 10.7567c-.23333.2333-.35.5133-.35.8399v7.0934c0 .6533.51333 1.1667 1.16667 1.1667h7.09333c.3033 0 .6067-.1167.8167-.35l10.78-10.78 9.6366 9.6366c3.08 3.08 6.44.1634 6.6034 0l4.4333-4.4333c1.82-1.82 1.82-4.7833 0-6.6033zm-16.4733-1.0266-9.66-9.6367 4.41-4.4333 2.9633 2.9633-1.0966 1.1433c-.4363.4363-.6814 1.028-.6814 1.645s.2451 1.2087.6814 1.645c.4362.4363 1.028.6814 1.645.6814s1.2087-.2451 1.645-.6814l1.12-1.12 3.3833 3.3834zm18.3867 18.4099-9.6367-9.6366 4.4333-4.4333 3.3834 3.3833-1.12 1.12c-.2161.216-.3874.4725-.5043.7547-.1169.2823-.1771.5848-.1771.8903s.0602.608.1771.8903c.1169.2822.2882.5387.5043.7547.216.216.4724.3874.7547.5043.2822.1169.5848.1771.8903.1771s.608-.0602.8902-.1771c.2823-.1169.5387-.2883.7548-.5043l1.12-1.12 2.9633 2.9633zm8.5166-27.8133c.2163-.2158.388-.4723.505-.7545.1171-.2823.1774-.5849.1774-.8905s-.0603-.6082-.1774-.8904c-.117-.2823-.2887-.5387-.505-.7546l-5.46-5.45998c-1.0966-1.09667-2.6133-.67667-3.29 0l-4.27 4.26998 8.75 8.75z" fill="#c1c1c1"/></svg>