<svg fill="none" height="56" viewBox="0 0 56 56" width="56" xmlns="http://www.w3.org/2000/svg"><g fill="#c1c1c1"><path clip-rule="evenodd" d="m29.5531 16.3105 9.9575 9.9597-4.3187 12.9584-23.0316 6.8475 11.6171-11.617c.6834-.6834.6834-1.7914 0-2.4749-.6835-.6834-1.7915-.6834-2.4749 0l-11.2579 11.2579 7.3034-21.9064zm-12.1544 4.8731c-.0001.0003-.0002.0006-.0003.0009zm-12.16855 25.4331 8.84765-26.5383c.0001-.0003.0002-.0006.0003-.0009.1427-.4284.3758-.8211.6836-1.1515.308-.3306.6835-.5911 1.1011-.7638l12.5704-5.1757c-.0002.0001.0002-.0001 0 0 .5748-.2372 1.2076-.2993 1.8175-.1779.6101.1215 1.1706.4209 1.6108.8604l10.2767 10.2791c0-.0001.0001.0001 0 0 .4136.4136.7041.9344.8385 1.5036.1345.5694.1077 1.1649-.0772 1.7199l-4.445 13.3374-.0004.0011c-.1603.48-.4339.9143-.7976 1.2661s-.8069.6108-1.2919.7551l-27.24896 8.1015c-.55235.164-1.13961.1736-1.69692.0273-.55734-.1463-1.06386-.4426-1.46446-.8567-.4006-.4142-.67994-.9303-.80762-1.4921-.12766-.5618-.09873-1.1481.08351-1.6946zm34.43315-20.1937c-.0002-.0002-.0004-.0004-.0005-.0006z" fill-rule="evenodd"/><path d="m42.9397 7.42448 5.516 5.51602c.4145.3966.7456.8719.9739 1.3982s.3491 1.0929.3555 1.6665c.0063.5736-.102 1.1427-.3186 1.6739s-.5371 1.0138-.9427 1.4195c-.4057.4056-.8883.7261-1.4195.9427s-1.1003.3249-1.6739.3186-1.1402-.1272-1.6665-.3555-1.0017-.5594-1.3982-.9739l-5.5184-5.516c-.7783-.8135-1.2071-1.8995-1.1947-3.0253.0125-1.12581.4652-2.202 1.2613-2.99812.7962-.79612 1.8723-1.24888 2.9982-1.26132 1.1258-.01245 2.214.4164 3.0276 1.19472z" stroke="#c1c1c1" stroke-linecap="round" stroke-linejoin="round" stroke-width="1.5"/><path clip-rule="evenodd" d="m24.2828 25.0001c.6022-.2463 1.2474-.3703 1.8981-.3647.6506.0057 1.2936.1409 1.8914.3977s1.1385.6301 1.5905 1.0981c.8926.9241 1.3865 2.1619 1.3753 3.4466-.0112 1.2848-.5265 2.5138-1.435 3.4223s-2.1375 1.4238-3.4222 1.435c-1.2848.0111-2.5226-.4828-3.4467-1.3753-.468-.452-.8413-.9927-1.0981-1.5906-.2568-.5978-.392-1.2408-.3976-1.8914-.0057-.6506.1183-1.2958.3647-1.898.2463-.6022.6102-1.1493 1.0703-1.6094.46-.46 1.0071-.8239 1.6093-1.0703zm1.8737 2.4352c-.2788-.0024-.5553.0507-.8134.1563s-.4926.2616-.6897.4587c-.1972.1972-.3532.4317-.4587.6898-.1056.258-.1588.5346-.1563.8134.0024.2788.0603.5544.1704.8106.11.2562.27.4879.4706.6817.396.3825.9265.5942 1.4771.5894s1.0773-.2257 1.4667-.615c.3894-.3894.6102-.9161.615-1.4667s-.2069-1.0811-.5894-1.4771c-.1937-.2006-.4255-.3606-.6817-.4707-.2562-.11-.5317-.1679-.8106-.1704z" fill-rule="evenodd"/></g></svg>