<svg fill="none" height="80" viewBox="0 0 80 80" width="80" xmlns="http://www.w3.org/2000/svg"><g fill="#fff"><path clip-rule="evenodd" d="m42.2185 23.3013 14.225 14.2283-6.1696 18.5119-32.9023 9.7822 16.5958-16.5957c.9763-.9764.9763-2.5593 0-3.5356s-2.5593-.9763-3.5356 0l-16.0827 16.0827 10.4335-31.2948zm-17.3635 6.9616c-.0001.0005-.0002.0009-.0004.0013zm-17.38364 36.333 12.63944-37.9118c.0002-.0004.0003-.0008.0005-.0013.2038-.612.5369-1.173.9766-1.645.44-.4723.9764-.8445 1.5729-1.0912l17.9578-7.3938c-.0003.0001.0003-.0001 0 0 .8212-.3389 1.7251-.4276 2.5964-.2541.8716.1735 1.6723.6012 2.3011 1.2291l14.6811 14.6845c-.0001-.0002.0001.0001 0 0 .5908.5908 1.0058 1.3348 1.1979 2.148.1921.8133.1538 1.6641-.1104 2.457l-6.35 19.0533-.0005.0016c-.2291.6857-.6199 1.3061-1.1395 1.8087s-1.1526.8727-1.8455 1.0788l-38.9271 11.5735c-.7891.2343-1.628.248-2.4242.039-.7962-.2089-1.51981-.6323-2.09209-1.2239-.57229-.5916-.97135-1.3289-1.15375-2.1316-.18237-.8025-.14105-1.64.1193-2.4208zm49.19024-28.8481c-.0002-.0003-.0005-.0006-.0008-.0009z" fill-rule="evenodd"/><path d="m61.3421 10.6068 7.88 7.88c.5922.5665 1.0652 1.2456 1.3913 1.9975.3261.7518.4988 1.5612.5079 2.3807.009.8194-.1457 1.6325-.4551 2.3913-.3095.7589-.7673 1.4483-1.3468 2.0278-.5795.5794-1.2689 1.0373-2.0278 1.3468-.7588.3094-1.5719.4641-2.3913.4551-.8195-.0091-1.6289-.1818-2.3807-.5079-.7519-.3261-1.431-.7992-1.9975-1.3913l-7.8833-7.88c-1.1119-1.1622-1.7246-2.7135-1.7068-4.3218s.6646-3.1458 1.8019-4.2831c1.1373-1.13728 2.6747-1.78408 4.283-1.80187 1.6083-.01778 3.163.59487 4.3252 1.70677z" stroke="#fff" stroke-linecap="round" stroke-linejoin="round" stroke-width="1.5"/><path clip-rule="evenodd" d="m34.6892 35.7149c.8603-.352 1.782-.5291 2.7115-.521.9294.008 1.848.2012 2.702.568.854.3669 1.6264.9002 2.2722 1.5687 1.2751 1.3202 1.9806 3.0885 1.9647 4.9238-.016 1.8354-.7522 3.5911-2.05 4.889-1.2979 1.2978-3.0536 2.034-4.8889 2.0499-1.8354.016-3.6036-.6896-4.9238-1.9647-.6686-.6457-1.2019-1.4181-1.5687-2.2721-.3669-.8541-.56-1.7726-.5681-2.7021-.0081-.9294.169-1.8512.521-2.7115.352-.8602.8717-1.6418 1.529-2.299.6572-.6573 1.4388-1.1771 2.2991-1.529zm2.6767 3.4788c-.3983-.0034-.7934.0725-1.1621.2233-.3686.1508-.7036.3736-.9853.6553s-.5044.6166-.6553.9853c-.1508.3687-.2267.7637-.2232 1.1621.0034.3983.0862.792.2434 1.158s.3858.697.6723.9738c.5658.5464 1.3236.8488 2.1102.842s1.539-.3223 2.0953-.8786c.5562-.5562.8717-1.3086.8785-2.0952.0069-.7866-.2955-1.5444-.842-2.1102-.2767-.2866-.6078-.5151-.9738-.6723-.366-.1573-.7597-.24-1.158-.2435z" fill-rule="evenodd"/></g></svg>