<svg fill="none" height="80" viewBox="0 0 80 80" width="80" xmlns="http://www.w3.org/2000/svg"><path d="m54.1333 38.3666 5.2334-5.2333-12.5-12.5-5.2334 5.2333-13.8-13.7666c-2.6-2.60003-6.8333-2.60003-9.4333 0l-6.3333 6.3333c-2.60003 2.6-2.60003 6.8333 0 9.4333l13.7666 13.7667-15.3333 15.3667c-.3333.3333-.5.7333-.5 1.2v10.1333c0 .9333.7333 1.6667 1.6667 1.6667h10.1333c.4333 0 .8667-.1667 1.1667-.5l15.4-15.4 13.7666 13.7666c4.4 4.4 9.2.2334 9.4334 0l6.3333-6.3333c2.6-2.6 2.6-6.8333 0-9.4333zm-23.5333-1.4666-13.8-13.7667 6.3-6.3333 4.2333 4.2333-1.5666 1.6333c-.6233.6233-.9734 1.4686-.9734 2.35 0 .8815.3501 1.7268.9734 2.35.6232.6233 1.4685.9734 2.35.9734.8814 0 1.7267-.3501 2.35-.9734l1.6-1.6 4.8333 4.8334zm26.2667 26.3-13.7667-13.7667 6.3333-6.3333 4.8334 4.8333-1.6 1.6c-.3086.3086-.5534.675-.7205 1.0782-.167.4032-.2529.8354-.2529 1.2718s.0859.8686.2529 1.2718c.1671.4032.4119.7696.7205 1.0782s.6749.5534 1.0782.7204c.4032.167.8353.253 1.2718.253.4364 0 .8686-.086 1.2718-.253s.7696-.4118 1.0782-.7204l1.6-1.6 4.2333 4.2333zm12.1666-39.7334c.309-.3083.5542-.6746.7215-1.0779.1672-.4032.2533-.8355.2533-1.2721 0-.4365-.0861-.8688-.2533-1.272-.1673-.4033-.4125-.7696-.7215-1.078l-7.8-7.8c-1.5666-1.56663-3.7333-.96663-4.7 0l-6.1 6.1 12.5 12.5z" fill="#fff"/></svg>