<svg fill="none" height="80" viewBox="0 0 80 80" width="80" xmlns="http://www.w3.org/2000/svg"><path d="m65 12.5h-50c-1.9891 0-3.8968.7902-5.3033 2.1967-1.40652 1.4065-2.1967 3.3142-2.1967 5.3033v35c0 1.9891.79018 3.8968 2.1967 5.3033 1.4065 1.4065 3.3142 2.1967 5.3033 2.1967h22.5v5h-7.5c-.663 0-1.2989.2634-1.7678.7322-.4688.4689-.7322 1.1048-.7322 1.7678s.2634 1.2989.7322 1.7678c.4689.4688 1.1048.7322 1.7678.7322h20c.663 0 1.2989-.2634 1.7678-.7322.4688-.4689.7322-1.1048.7322-1.7678s-.2634-1.2989-.7322-1.7678c-.4689-.4688-1.1048-.7322-1.7678-.7322h-7.5v-5h22.5c1.9891 0 3.8968-.7902 5.3033-2.1967s2.1967-3.3142 2.1967-5.3033v-35c0-1.9891-.7902-3.8968-2.1967-5.3033s-3.3142-2.1967-5.3033-2.1967zm-50 5h50c.663 0 1.2989.2634 1.7678.7322.4688.4689.7322 1.1048.7322 1.7678v25h-55v-25c0-.663.2634-1.2989.7322-1.7678.4689-.4688 1.1048-.7322 1.7678-.7322zm50 40h-50c-.663 0-1.2989-.2634-1.7678-.7322-.4688-.4689-.7322-1.1048-.7322-1.7678v-5h55v5c0 .663-.2634 1.2989-.7322 1.7678-.4689.4688-1.1048.7322-1.7678.7322z" fill="#fff"/></svg>